<svg width="800" height="420" viewBox="0 0 800 420" xmlns="http://www.w3.org/2000/svg" role="img" aria-label="Build Pulse: current streak 0 days, 16 active days in the last 30, longest streak 10 days. Public contributions, updated 2026-10-10.">
<defs>
<linearGradient id="bg" x1="0" y1="0" x2="1" y2="1"><stop offset="0" stop-color="#0a1224"/><stop offset="1" stop-color="#0f1838"/></linearGradient>
<radialGradient id="g1" cx=".27" cy=".5" r=".5"><stop offset="0" stop-color="#4fd1c5" stop-opacity=".16"/><stop offset="1" stop-color="#4fd1c5" stop-opacity="0"/></radialGradient>
<pattern id="grid" width="40" height="40" patternUnits="userSpaceOnUse"><path d="M40 0H0V40" fill="none" stroke="#fff" stroke-opacity=".035"/></pattern>
<clipPath id="card"><rect width="800" height="420" rx="24"/></clipPath>
</defs>
<style>
.cur{stroke-dasharray:6 8;animation:flow 3.2s linear infinite}
@keyframes flow{to{stroke-dashoffset:-56}}
.ping{animation:ping 3.4s ease-out infinite;transform-origin:189.5px 94.6px}
@keyframes ping{0%{transform:scale(.8);opacity:.9}100%{transform:scale(3);opacity:0}}
.orb{transform-origin:214px 210px;animation:orb 90s linear infinite}
@keyframes orb{to{transform:rotate(360deg)}}
.fade{animation:fade 1.4s ease-out both}
@keyframes fade{from{opacity:0;transform:translateY(8px)}to{opacity:1;transform:none}}
</style>
<g clip-path="url(#card)"><rect width="800" height="420" fill="url(#bg)"/><rect width="800" height="420" fill="url(#g1)"/><rect width="800" height="420" fill="url(#grid)"/></g>
<rect x=".5" y=".5" width="799" height="419" rx="23.5" fill="none" stroke="#2a3050"/>
<circle class="orb" cx="214" cy="210" r="190" fill="none" stroke="#9fe9ff" stroke-opacity=".16" stroke-dasharray="2 12"/>
<path d="M222.4 50.2 A160 160 0 0 1 286.6 67.4" fill="none" stroke="#7fb2ff" stroke-width="3" stroke-linecap="round" stroke-opacity="0.47"/><path d="M301.1 75.8 A160 160 0 0 1 348.2 122.9" fill="none" stroke="#7fb2ff" stroke-width="3" stroke-linecap="round" stroke-opacity="0.26"/><path d="M356.6 137.4 A160 160 0 0 1 373.8 201.6" fill="none" stroke="#7fb2ff" stroke-width="3" stroke-linecap="round" stroke-opacity="0.31"/><path d="M373.8 218.4 A160 160 0 0 1 356.6 282.6" fill="none" stroke="#7fb2ff" stroke-width="3" stroke-linecap="round" stroke-opacity="0.45"/><path d="M348.2 297.1 A160 160 0 0 1 301.1 344.2" fill="none" stroke="#7fb2ff" stroke-width="3" stroke-linecap="round" stroke-opacity="0.39"/><path d="M286.6 352.6 A160 160 0 0 1 222.4 369.8" fill="none" stroke="#7fb2ff" stroke-width="3" stroke-linecap="round" stroke-opacity="0.26"/><path d="M205.6 369.8 A160 160 0 0 1 141.4 352.6" fill="none" stroke="#7fb2ff" stroke-width="3" stroke-linecap="round" stroke-opacity="0.14"/><path d="M126.9 344.2 A160 160 0 0 1 79.8 297.1" fill="none" stroke="#7fb2ff" stroke-width="3" stroke-linecap="round" stroke-opacity="0.27"/><path d="M71.4 282.6 A160 160 0 0 1 54.2 218.4" fill="none" stroke="#7fb2ff" stroke-width="3" stroke-linecap="round" stroke-opacity="0.25"/><path d="M54.2 201.6 A160 160 0 0 1 71.4 137.4" fill="none" stroke="#7fb2ff" stroke-width="3" stroke-linecap="round" stroke-opacity="0.24"/><path d="M79.8 122.9 A160 160 0 0 1 126.9 75.8" fill="none" stroke="#7fb2ff" stroke-width="3" stroke-linecap="round" stroke-opacity="0.82"/><path d="M141.4 67.4 A160 160 0 0 1 205.6 50.2" fill="none" stroke="#7fb2ff" stroke-width="3" stroke-linecap="round" stroke-opacity="0.15"/><circle cx="214" cy="210" r="118" fill="none" stroke="#fff" stroke-opacity=".06"/><path d="M326.2 173.5 A118 118 0 0 1 331.4 197.7" fill="none" stroke-linecap="round" stroke="#7f93ff" stroke-width="2" stroke-opacity=".7"/><path d="M331.4 197.7 A118 118 0 0 1 331.4 222.3" fill="none" stroke-linecap="round" stroke="#7f93ff" stroke-width="2" stroke-opacity=".7"/><path d="M331.4 222.3 A118 118 0 0 1 326.2 246.5" fill="none" stroke-linecap="round" stroke="#7f93ff" stroke-width="2" stroke-opacity=".7"/><path d="M326.2 246.5 A118 118 0 0 1 316.2 269.0" fill="none" stroke-linecap="round" stroke="#7f93ff" stroke-width="2" stroke-opacity=".7"/><path d="M316.2 269.0 A118 118 0 0 1 301.7 289.0" fill="none" stroke-linecap="round" stroke="#7f93ff" stroke-width="2" stroke-opacity=".7"/><path d="M301.7 289.0 A118 118 0 0 1 283.4 305.5" fill="none" stroke-linecap="round" stroke="#7f93ff" stroke-width="2" stroke-opacity=".7"/><path d="M189.5 325.4 A118 118 0 0 1 166.0 317.8" fill="none" stroke-linecap="round" stroke="#7f93ff" stroke-width="2" stroke-opacity=".7"/><path d="M166.0 317.8 A118 118 0 0 1 144.6 305.5" fill="none" stroke-linecap="round" stroke="#7f93ff" stroke-width="2" stroke-opacity=".7"/><path d="M144.6 305.5 A118 118 0 0 1 126.3 289.0" fill="none" stroke-linecap="round" stroke="#7f93ff" stroke-width="2" stroke-opacity=".7"/><path d="M126.3 289.0 A118 118 0 0 1 111.8 269.0" fill="none" stroke-linecap="round" stroke="#7f93ff" stroke-width="2" stroke-opacity=".7"/><path d="M111.8 269.0 A118 118 0 0 1 101.8 246.5" fill="none" stroke-linecap="round" stroke="#7f93ff" stroke-width="2" stroke-opacity=".7"/><path d="M101.8 246.5 A118 118 0 0 1 96.6 222.3" fill="none" stroke-linecap="round" stroke="#7f93ff" stroke-width="2" stroke-opacity=".7"/><path d="M96.6 222.3 A118 118 0 0 1 96.6 197.7" fill="none" stroke-linecap="round" stroke="#7f93ff" stroke-width="2" stroke-opacity=".7"/><circle cx="214.0" cy="92.0" r="2.2" fill="#4a5080" fill-opacity=".7"/><circle cx="238.5" cy="94.6" r="2.2" fill="#4a5080" fill-opacity=".7"/><circle cx="262.0" cy="102.2" r="2.2" fill="#4a5080" fill-opacity=".7"/><circle cx="283.4" cy="114.5" r="2.2" fill="#4a5080" fill-opacity=".7"/><circle cx="301.7" cy="131.0" r="4.5" fill="#aab6ff"/><circle cx="316.2" cy="151.0" r="2.2" fill="#4a5080" fill-opacity=".7"/><circle cx="326.2" cy="173.5" r="4.5" fill="#aab6ff"/><circle cx="331.4" cy="197.7" r="4.5" fill="#aab6ff"/><circle cx="331.4" cy="222.3" r="4.5" fill="#aab6ff"/><circle cx="326.2" cy="246.5" r="4.5" fill="#aab6ff"/><circle cx="316.2" cy="269.0" r="4.5" fill="#aab6ff"/><circle cx="301.7" cy="289.0" r="4.5" fill="#aab6ff"/><circle cx="283.4" cy="305.5" r="4.5" fill="#aab6ff"/><circle cx="262.0" cy="317.8" r="2.2" fill="#4a5080" fill-opacity=".7"/><circle cx="238.5" cy="325.4" r="2.2" fill="#4a5080" fill-opacity=".7"/><circle cx="214.0" cy="328.0" r="2.2" fill="#4a5080" fill-opacity=".7"/><circle cx="189.5" cy="325.4" r="4.5" fill="#aab6ff"/><circle cx="166.0" cy="317.8" r="4.5" fill="#aab6ff"/><circle cx="144.6" cy="305.5" r="4.5" fill="#aab6ff"/><circle cx="126.3" cy="289.0" r="4.5" fill="#aab6ff"/><circle cx="111.8" cy="269.0" r="7.2" fill="#aab6ff"/><circle cx="101.8" cy="246.5" r="4.5" fill="#aab6ff"/><circle cx="96.6" cy="222.3" r="4.5" fill="#aab6ff"/><circle cx="96.6" cy="197.7" r="4.5" fill="#aab6ff"/><circle cx="101.8" cy="173.5" r="2.2" fill="#4a5080" fill-opacity=".7"/><circle cx="111.8" cy="151.0" r="2.2" fill="#4a5080" fill-opacity=".7"/><circle cx="126.3" cy="131.0" r="2.2" fill="#4a5080" fill-opacity=".7"/><circle cx="144.6" cy="114.5" r="2.2" fill="#4a5080" fill-opacity=".7"/><circle cx="166.0" cy="102.2" r="2.2" fill="#4a5080" fill-opacity=".7"/><circle cx="189.5" cy="94.6" r="2.2" fill="#4a5080" fill-opacity=".7"/><circle cx="189.5" cy="94.6" r="7" fill="none" stroke="#9fe9ff" class="ping"/>
<text x="214" y="224" text-anchor="middle" font-family="-apple-system,BlinkMacSystemFont,'SF Pro Display','Segoe UI',Helvetica,Arial,sans-serif" font-size="76" font-weight="500" letter-spacing="-2" fill="#f4f6ff">00</text>
<text x="214" y="250" text-anchor="middle" font-family="'SF Mono',SFMono-Regular,Menlo,Consolas,'Liberation Mono',monospace" font-size="11.5" letter-spacing="3" fill="#8fa0c8">DAY STREAK</text>
<g class="fade">
<text x="470" y="96" font-family="'SF Mono',SFMono-Regular,Menlo,Consolas,'Liberation Mono',monospace" font-size="12.5" letter-spacing="3.4" fill="#4fd1c5">BUILD PULSE</text>
<text x="468" y="142" font-family="-apple-system,BlinkMacSystemFont,'SF Pro Display','Segoe UI',Helvetica,Arial,sans-serif" font-size="34" font-weight="650" letter-spacing="-.8" fill="#f3f5ff">Build continuity</text>
<text x="470" y="204" font-family="'SF Mono',SFMono-Regular,Menlo,Consolas,'Liberation Mono',monospace" font-size="11.5" letter-spacing="2.4" fill="#7f8bb4">ACTIVE DAYS · LAST 30</text>
<text x="468" y="248" font-family="-apple-system,BlinkMacSystemFont,'SF Pro Display','Segoe UI',Helvetica,Arial,sans-serif" font-size="44" font-weight="600" fill="#f3f5ff">16<tspan font-size="20" fill="#7f8bb4" font-weight="400"> / 30</tspan></text>
<text x="470" y="290" font-family="'SF Mono',SFMono-Regular,Menlo,Consolas,'Liberation Mono',monospace" font-size="11.5" letter-spacing="2.4" fill="#7f8bb4">LONGEST STREAK · 12 MONTHS</text>
<text x="468" y="334" font-family="-apple-system,BlinkMacSystemFont,'SF Pro Display','Segoe UI',Helvetica,Arial,sans-serif" font-size="44" font-weight="600" fill="#f3f5ff">10<tspan font-size="20" fill="#7f8bb4" font-weight="400"> days</tspan></text>
<text x="470" y="384" font-family="'SF Mono',SFMono-Regular,Menlo,Consolas,'Liberation Mono',monospace" font-size="10.5" letter-spacing="1.2" fill="#5f6a92">PUBLIC CONTRIBUTIONS · UPDATED 2026-10-10</text>
</g>
</svg>